<svg width="177" height="227" viewBox="0 0 177 227" fill="none" xmlns="http://www.w3.org/2000/svg">
<path d="M87.6669 182.559C87.6669 182.559 122.867 176.159 128.467 183.759C133.967 191.359 132.267 200.759 132.267 200.759C132.267 200.759 149.767 190.159 152.667 200.759C152.667 200.759 154.267 215.359 129.267 215.759C125.867 215.759 122.967 213.259 122.567 209.859C122.167 206.459 121.967 201.159 122.267 192.659C122.367 190.559 120.667 188.759 118.567 188.659C115.067 188.459 108.367 188.559 95.7668 189.359" fill="#E9A323"/>
<path d="M87.6669 182.559C87.6669 182.559 122.867 176.159 128.467 183.759C133.967 191.359 132.267 200.759 132.267 200.759C132.267 200.759 149.767 190.159 152.667 200.759C152.667 200.759 154.267 215.359 129.267 215.759C125.867 215.759 122.967 213.259 122.567 209.859C122.167 206.459 121.967 201.159 122.267 192.659C122.367 190.559 120.667 188.759 118.567 188.659C115.067 188.459 108.367 188.559 95.7668 189.359" stroke="black" stroke-width="2.8346" stroke-miterlimit="10"/>
<path d="M33.7668 63.7592C33.7668 63.7592 34.6668 54.2592 43.2668 48.2592C51.8668 42.2592 57.7668 33.7592 81.3668 31.1592C104.967 28.5592 111.767 51.2592 111.767 51.2592C111.767 51.2592 120.867 57.9592 117.167 98.2592C113.467 138.559 121.167 152.259 121.167 152.259C121.167 152.259 128.867 184.359 103.167 194.159C77.4668 203.959 52.4668 201.859 40.8668 194.159C29.1668 186.459 14.2668 169.759 23.6668 125.759C33.0668 81.7592 33.7668 63.7592 33.7668 63.7592Z" fill="#E9A323" stroke="black" stroke-width="2.8346" stroke-miterlimit="10"/>
<path d="M97.7668 98.2591C97.7668 98.2591 135.567 69.4592 167.567 92.2591C167.567 92.2591 187.967 115.059 146.767 123.259C146.767 123.259 133.167 124.559 106.067 114.059" fill="#E9A323"/>
<path d="M97.7668 98.2592C100.167 96.1592 102.667 94.3592 105.367 92.6592C107.967 90.9592 110.767 89.3592 113.567 87.9592C114.267 87.6592 114.967 87.2592 115.767 86.9592C116.467 86.6592 117.267 86.3592 117.967 86.1592C118.767 85.9592 119.467 85.6592 120.267 85.3592L122.567 84.6592C124.067 84.2592 125.667 83.8592 127.167 83.4592C127.967 83.2592 128.767 83.1592 129.467 82.9592C130.267 82.8592 131.067 82.6592 131.867 82.5592L134.267 82.2592L136.667 82.0592C137.467 81.9592 138.267 81.9592 139.067 81.9592H140.267H141.467C143.067 81.9592 144.667 82.1592 146.267 82.2592C147.867 82.4592 149.467 82.6592 150.967 83.0592C152.567 83.3592 154.067 83.8592 155.567 84.3592C156.367 84.5592 157.067 84.9592 157.867 85.1592L158.967 85.5592L160.067 86.0592L162.267 87.0592L164.367 88.2592C164.667 88.4592 165.067 88.6592 165.367 88.8592L166.367 89.5592L168.367 90.8592L168.467 90.9592L168.567 91.0592C169.367 91.9592 169.867 92.7592 170.467 93.6592C171.067 94.5592 171.567 95.4592 171.967 96.4592C172.467 97.4592 172.767 98.4592 173.167 99.4592C173.467 100.459 173.767 101.559 173.867 102.659C173.967 103.759 173.967 104.859 173.867 105.959C173.667 107.059 173.467 108.159 173.067 109.159C172.867 109.659 172.667 110.159 172.367 110.659C172.067 111.159 171.867 111.659 171.567 112.059C170.967 112.959 170.267 113.759 169.467 114.559L168.267 115.659L166.967 116.659C166.567 116.959 166.067 117.259 165.667 117.559C165.267 117.859 164.767 118.159 164.367 118.359C163.467 118.859 162.567 119.359 161.567 119.759C160.667 120.159 159.667 120.659 158.667 120.959L157.267 121.559L155.767 122.059C154.767 122.359 153.867 122.659 152.867 122.959C151.867 123.159 150.867 123.559 149.867 123.759L146.867 124.459H146.767H146.667C145.667 124.559 144.767 124.559 143.867 124.459C142.967 124.459 142.067 124.359 141.167 124.359C139.367 124.259 137.567 124.059 135.867 123.759L133.267 123.359L130.667 122.859L128.067 122.259C127.167 122.059 126.367 121.959 125.467 121.659C123.767 121.159 122.067 120.559 120.467 119.959C118.767 119.359 117.167 118.659 115.567 118.059C113.967 117.359 112.267 116.659 110.667 116.059L105.967 114.059L111.067 115.559C112.767 116.059 114.467 116.459 116.167 116.959C117.867 117.359 119.567 117.859 121.267 118.159L123.867 118.659L126.467 119.159C127.267 119.359 128.167 119.559 128.967 119.759C129.767 119.959 130.667 120.159 131.467 120.359L133.967 120.859L136.567 121.259C138.267 121.459 139.967 121.759 141.667 121.859C142.567 121.959 143.367 121.959 144.167 121.959C144.967 121.959 145.867 121.959 146.667 121.959H146.567L149.467 121.359C150.467 121.159 151.367 120.859 152.367 120.659C153.367 120.459 154.267 120.159 155.167 119.859L156.567 119.359L157.967 118.859C158.867 118.559 159.767 118.159 160.667 117.759C161.567 117.359 162.367 116.859 163.267 116.459C163.667 116.259 164.067 115.959 164.467 115.659C164.867 115.359 165.267 115.159 165.667 114.859L166.767 113.959L167.767 113.059C168.367 112.359 168.967 111.759 169.467 110.959C169.767 110.559 169.967 110.159 170.167 109.759C170.367 109.359 170.567 108.959 170.667 108.559C170.967 107.759 171.167 106.859 171.267 105.959C171.367 105.059 171.367 104.159 171.267 103.259C171.167 102.359 170.967 101.459 170.667 100.559C170.367 99.6592 170.067 98.7592 169.667 97.9592C169.267 97.1592 168.767 96.2592 168.267 95.4592C167.767 94.6592 167.167 93.8592 166.667 93.2592L166.867 93.4592L164.967 92.2592L164.067 91.6592C163.767 91.4592 163.367 91.2592 163.067 91.0592L161.067 89.9592L158.967 88.9592L157.967 88.4592L156.867 88.0592C156.167 87.7592 155.467 87.4592 154.767 87.2592C153.367 86.8592 151.867 86.3592 150.367 86.0592C148.867 85.6592 147.367 85.4592 145.867 85.2592C144.367 85.1592 142.867 84.9592 141.367 84.9592H140.267H139.167C138.367 84.9592 137.667 84.9592 136.867 85.0592L134.567 85.2592L132.267 85.5592C131.467 85.6592 130.767 85.7592 129.967 85.9592C129.167 86.0592 128.467 86.2592 127.767 86.3592C126.267 86.6592 124.767 87.0592 123.367 87.4592L121.167 88.1592C120.467 88.4592 119.767 88.6592 118.967 88.9592C117.567 89.5592 116.067 90.0592 114.667 90.5592C111.767 91.5592 108.867 92.7592 106.067 94.0592C103.167 95.1592 100.467 96.6592 97.7668 98.2592Z" fill="black"/>
<path d="M97.7668 118.359C97.7668 118.359 98.7668 117.859 100.267 117.159C100.667 116.959 100.967 116.759 101.467 116.559C101.867 116.359 102.267 116.059 102.767 115.859C103.167 115.659 103.667 115.359 104.167 115.059C104.667 114.759 105.067 114.559 105.567 114.259C106.067 113.959 106.467 113.659 106.967 113.459C107.367 113.159 107.867 112.959 108.267 112.659C108.667 112.359 109.067 112.159 109.467 111.859C109.867 111.559 110.267 111.359 110.567 111.159C111.267 110.759 111.867 110.359 112.267 110.059C112.667 109.859 112.967 109.659 112.967 109.659C112.967 109.659 112.767 109.859 112.467 110.259C112.167 110.659 111.667 111.159 111.067 111.759C110.467 112.359 109.767 112.959 108.967 113.659C108.167 114.259 107.267 114.959 106.267 115.559C105.267 116.159 104.367 116.659 103.367 117.059C102.367 117.459 101.467 117.759 100.667 118.059C98.8669 118.359 97.7668 118.359 97.7668 118.359Z" fill="black"/>
<path d="M146.867 83.4592C146.867 83.4592 176.967 67.3592 176.067 96.1592C175.667 109.659 151.067 107.659 151.067 107.659C151.067 107.659 139.667 105.959 137.067 98.3592C134.567 90.6592 146.867 83.4592 146.867 83.4592Z" fill="#180E0C"/>
<path d="M49.7668 191.959C49.7668 191.959 94.4669 181.359 99.9669 188.959C105.467 196.559 102.467 210.959 102.467 210.959C102.467 210.959 116.467 202.459 119.367 213.059C119.367 213.059 122.267 224.559 98.7668 225.059C94.5668 225.159 90.9669 221.959 90.6669 217.759C90.3669 214.359 90.2669 209.359 90.4669 201.959C90.5669 199.859 88.8668 198.059 86.7668 197.959C83.2668 197.759 75.0669 198.659 62.3669 199.359" fill="#E9A323"/>
<path d="M49.7668 191.959C55.6668 190.059 61.6669 188.559 67.6669 187.159C69.1669 186.859 70.6668 186.459 72.2668 186.159C73.7668 185.959 75.3669 185.759 76.8669 185.559C79.9669 185.159 83.0669 184.859 86.1669 184.759C87.7669 184.659 89.2669 184.659 90.8669 184.759C92.4669 184.859 94.0669 184.959 95.6669 185.259C96.4669 185.459 97.2669 185.659 98.1669 185.959C98.5669 186.159 98.9669 186.259 99.3669 186.559C99.7669 186.859 100.167 187.059 100.567 187.559C100.767 187.759 100.967 187.859 101.067 188.259L101.367 188.759C101.567 189.059 101.767 189.359 101.967 189.759C102.367 190.559 102.767 191.359 102.967 192.159L103.367 193.359L103.667 194.559C103.867 195.359 103.967 196.159 104.167 196.959C104.367 198.559 104.467 200.159 104.567 201.759C104.567 203.359 104.467 204.959 104.367 206.559C104.267 208.159 104.067 209.659 103.767 211.259L101.667 209.759C103.767 208.559 105.767 207.659 108.067 207.059C110.267 206.459 112.767 206.059 115.367 206.759C116.667 207.159 117.867 207.859 118.767 208.959C119.667 209.959 120.267 211.159 120.567 212.359C120.867 213.059 120.867 213.759 120.867 214.459C120.867 215.159 120.767 215.759 120.667 216.359C120.367 217.659 119.767 218.759 118.967 219.859C117.367 221.859 115.267 223.259 113.067 224.059C112.767 224.159 112.567 224.259 112.267 224.359L111.467 224.659L109.767 225.159C108.667 225.359 107.567 225.659 106.367 225.859L102.967 226.259L99.5669 226.459H98.7668H98.6669H98.4669H98.2668H97.8669C97.5669 226.459 97.1669 226.359 96.8669 226.359C96.5669 226.259 96.2669 226.259 95.9669 226.159C94.7669 225.859 93.5669 225.159 92.5669 224.359C91.5669 223.559 90.7669 222.559 90.1669 221.359C89.5669 220.259 89.2669 218.859 89.1669 217.659C88.9669 215.459 88.8669 213.159 88.8669 210.959C88.8669 208.759 88.8669 206.559 88.9669 204.359L89.0669 202.659V201.859C89.0669 201.759 89.0669 201.559 89.0669 201.459C89.0669 201.359 89.0669 201.359 89.0669 201.259C88.9669 200.559 88.4669 199.959 87.8669 199.559C87.5669 199.359 87.2669 199.259 86.8669 199.259C86.7669 199.259 86.4669 199.259 86.1669 199.259C85.8669 199.259 85.6669 199.259 85.3669 199.259L82.1669 199.159H75.5669C71.1669 199.259 66.7669 199.259 62.3669 199.159L75.4669 197.459L82.0669 196.659C83.1669 196.559 84.2669 196.359 85.3669 196.359C85.6669 196.359 85.9668 196.359 86.2668 196.359C86.5668 196.359 86.7669 196.359 87.1669 196.459C87.8669 196.559 88.6668 196.759 89.2668 197.159C90.5668 197.959 91.4668 199.259 91.7668 200.759C91.7668 200.959 91.8669 201.159 91.8669 201.359C91.8669 201.559 91.8669 201.659 91.8669 201.859V202.759L91.7668 204.359C91.6668 206.559 91.6669 208.759 91.6669 210.859C91.6669 213.059 91.7669 215.159 91.9669 217.359C92.0669 219.259 92.9669 220.859 94.3669 222.059C95.0669 222.659 95.8668 223.059 96.7668 223.259L97.4669 223.359C97.6669 223.359 97.8669 223.459 98.0669 223.459H98.4669H98.6669H98.7668C98.6668 223.459 98.7668 223.459 98.7668 223.459H98.8669H99.6669L102.867 223.259L106.067 222.859C107.067 222.659 108.167 222.459 109.167 222.259L110.667 221.759L111.367 221.559C111.567 221.459 111.867 221.359 112.067 221.259C113.967 220.559 115.667 219.359 116.767 217.959C117.267 217.159 117.767 216.459 117.967 215.559C118.167 214.759 118.267 213.759 117.967 213.059C117.367 211.159 116.267 209.859 114.567 209.359C112.867 208.859 110.867 209.059 108.867 209.659C106.867 210.259 104.967 211.059 103.167 212.059L100.467 213.659L101.067 210.659C101.367 209.259 101.567 207.759 101.667 206.259C101.767 204.759 101.867 203.259 101.867 201.759C101.867 200.259 101.767 198.759 101.567 197.359C101.467 196.659 101.367 195.859 101.167 195.259L100.867 194.159L100.567 193.159C100.367 192.459 100.067 191.959 99.7668 191.259C99.5668 190.959 99.3669 190.559 99.1669 190.259L98.8669 189.759C98.8669 189.759 98.6669 189.659 98.6669 189.559C98.0669 188.859 96.6668 188.359 95.2668 188.059C93.8668 187.759 92.3669 187.659 90.8669 187.559C89.3669 187.459 87.8669 187.559 86.3669 187.559C83.3669 187.659 80.2668 187.959 77.2668 188.359C75.7668 188.559 74.2668 188.759 72.7668 188.959C71.2668 189.159 69.6669 189.259 68.1669 189.459C65.0669 189.759 62.0669 190.159 58.9669 190.559C55.8669 191.059 52.7668 191.459 49.7668 191.959Z" fill="black"/>
<path d="M40.7668 143.259C40.7668 143.259 40.5668 144.059 40.3668 145.559C40.1668 147.059 40.0668 149.259 40.1668 151.759C40.2668 153.059 40.3668 154.459 40.5668 155.859C40.7668 157.359 41.0668 158.859 41.4668 160.359C41.8668 161.959 42.3668 163.459 42.9668 165.059C43.5668 166.659 44.2668 168.159 45.0668 169.659C45.8668 171.159 46.7668 172.559 47.7668 173.959C48.2668 174.659 48.7668 175.259 49.2668 175.959C49.7668 176.559 50.2668 177.159 50.7668 177.759C51.2668 178.359 51.7668 178.959 52.2668 179.559C52.7668 180.159 53.2668 180.659 53.7668 181.159C54.2668 181.759 54.7668 182.159 55.2668 182.659C55.7668 183.159 56.1668 183.659 56.6668 184.059C57.5668 184.959 58.4668 185.759 59.2668 186.459C60.0668 187.159 60.7668 187.759 61.2668 188.259C62.4668 189.259 63.0668 189.859 63.0668 189.859L62.9668 190.059C62.9668 190.059 62.1668 189.759 60.7668 189.059C60.0668 188.759 59.2668 188.259 58.2668 187.759C57.3668 187.259 56.2668 186.559 55.2668 185.759C54.1668 184.959 53.0668 184.059 51.8668 183.059C50.6668 182.059 49.5668 180.859 48.4668 179.559C47.9668 178.859 47.4668 178.259 46.8668 177.559C46.3668 176.859 45.8668 176.059 45.4668 175.359C44.5668 173.859 43.6668 172.259 42.9668 170.659C42.1668 169.059 41.5668 167.359 41.0668 165.659C40.5668 163.959 40.1668 162.359 39.8668 160.659C39.2668 157.359 39.1668 154.259 39.2668 151.659C39.4668 146.359 40.5668 142.959 40.5668 142.959L40.7668 143.259Z" fill="black"/>
<path d="M51.4669 138.059C51.4669 138.059 51.2669 138.959 50.9669 140.559C50.7669 142.159 50.3668 144.459 50.2668 147.259C50.2668 148.659 50.1668 150.159 50.2668 151.759C50.3668 153.359 50.4668 155.059 50.7668 156.759C50.9668 158.459 51.3669 160.159 51.8669 161.959C52.3669 163.659 52.9668 165.359 53.7668 167.059C54.1668 167.859 54.5669 168.659 55.0669 169.459C55.5669 170.259 55.9669 170.959 56.5669 171.659C57.6669 173.059 58.7669 174.459 59.8669 175.559C60.4669 176.159 60.9669 176.759 61.6669 177.259C62.2669 177.759 62.8669 178.359 63.4669 178.859C64.6669 179.859 65.8669 180.659 66.9669 181.459C68.1669 182.159 69.1669 182.959 70.1669 183.459C71.1669 183.959 71.9668 184.559 72.7668 184.859C74.2668 185.559 75.0669 186.059 75.0669 186.059L74.9669 186.359C74.9669 186.359 74.0669 186.159 72.3668 185.859C71.5669 185.759 70.5669 185.359 69.4669 184.959C68.8669 184.759 68.3668 184.559 67.7668 184.259C67.1668 183.959 66.5669 183.759 65.8668 183.459C65.2668 183.159 64.5669 182.759 63.8669 182.359C63.1669 181.959 62.5669 181.459 61.8669 181.059C61.1669 180.659 60.4669 180.059 59.8669 179.459C59.1669 178.959 58.5669 178.259 57.8669 177.559C56.5669 176.259 55.4669 174.659 54.4669 173.059C53.9669 172.259 53.4669 171.359 53.0669 170.559C52.6669 169.659 52.1669 168.859 51.8669 167.859C51.0669 166.059 50.5669 164.159 50.1669 162.359C49.7669 160.559 49.4668 158.659 49.2668 156.859C48.8668 153.259 49.0669 149.959 49.3669 147.159C49.6669 144.359 50.1669 142.059 50.5669 140.459C50.9669 138.859 51.2668 137.959 51.2668 137.959L51.4669 138.059Z" fill="black"/>
<path d="M71.4668 64.4591C67.4668 63.2591 63.0668 63.5592 59.4668 65.5592C55.1668 67.9592 50.0668 72.1591 49.7668 78.9591C49.1668 91.0592 54.2668 108.659 59.6668 109.659C68.0668 111.159 82.6668 109.259 84.2668 90.6592C85.6668 74.4592 83.0668 68.0591 71.4668 64.4591Z" fill="#F8FBF2" stroke="black" stroke-width="1.4173" stroke-miterlimit="10"/>
<path d="M69.8668 72.5592C68.2668 72.1592 66.4668 72.2592 64.9668 73.0592C61.9668 74.5592 56.5668 77.8592 55.8668 83.5592C54.7668 91.5592 57.3668 100.859 62.3668 101.259C67.3668 101.659 77.7668 99.2592 77.7668 89.1592C77.8668 80.1592 75.9668 74.1592 69.8668 72.5592Z" fill="#1C140A"/>
<path d="M69.8668 72.5592C68.2668 72.1592 66.4668 72.2592 64.9668 73.0592C61.9668 74.5592 56.5668 77.8592 55.8668 83.5592C54.7668 91.5592 57.3668 100.859 62.3668 101.259C67.3668 101.659 77.7668 99.2592 77.7668 89.1592C77.8668 80.1592 75.9668 74.1592 69.8668 72.5592Z" stroke="#1C140A" stroke-miterlimit="10"/>
<path d="M77.8668 86.6591C77.8668 86.6591 74.2668 75.7591 67.1668 85.0591C60.0668 94.3591 69.4668 100.959 73.2668 98.2591C79.0668 94.0591 77.8668 86.6591 77.8668 86.6591Z" fill="#926327"/>
<path d="M105.267 93.4592C105.267 93.4592 90.7668 91.0592 93.9668 68.7592C97.1668 46.4592 117.067 53.8592 117.067 53.8592C117.067 53.8592 131.167 54.9592 128.167 76.5592L125.367 85.3592C125.367 85.3592 112.767 88.6592 105.267 93.4592Z" fill="#F8FBF2" stroke="black" stroke-width="1.4173" stroke-miterlimit="10"/>
<path d="M121.167 60.2592C119.067 59.4592 116.667 59.6592 114.667 60.7592C111.567 62.3592 106.867 65.5592 106.167 70.8592C105.067 78.8592 107.667 88.1592 112.667 88.5592C117.667 88.9592 128.067 86.5592 128.067 76.4592C128.067 68.1592 126.467 62.2592 121.167 60.2592Z" fill="#1C140A" stroke="#1C140A" stroke-miterlimit="10"/>
<path d="M128.067 74.0592C128.067 74.0592 123.867 64.1592 117.667 74.0592C115.467 77.5592 116.967 82.3592 118.367 87.4592C118.367 87.4592 124.267 86.4592 125.267 85.3592C128.467 81.9592 128.067 74.0592 128.067 74.0592Z" fill="#926327"/>
<path d="M32.8669 35.7592C32.8669 35.7592 21.5669 34.5592 22.3669 40.4592C23.1669 46.2592 38.0669 53.2592 62.9669 46.2592C87.8669 39.2592 79.7668 15.5592 79.7668 15.5592C79.7668 15.5592 72.9669 12.8591 66.6669 22.9591C60.4669 32.9592 62.3669 36.0592 32.8669 35.7592Z" fill="#ED953D" stroke="black" stroke-width="2.8346" stroke-miterlimit="10"/>
<path d="M67.1668 20.9592C56.4668 5.65918 44.9668 -3.9408 32.9668 6.1592C20.9668 16.2592 35.6668 35.6592 35.6668 35.6592" fill="#EF9D50"/>
<path d="M67.1668 20.9592C56.4668 5.65918 44.9668 -3.9408 32.9668 6.1592C20.9668 16.2592 35.6668 35.6592 35.6668 35.6592" stroke="black" stroke-width="2.8346" stroke-miterlimit="10"/>
<path d="M64.6668 17.5592C46.2668 18.9592 32.5668 30.9592 32.5668 30.9592L37.8668 35.7592C37.8668 35.7592 63.0668 40.9592 67.1668 20.9592" fill="#23190D"/>
<path d="M64.6668 17.5592C46.2668 18.9592 32.5668 30.9592 32.5668 30.9592L37.8668 35.7592C37.8668 35.7592 63.0668 40.9592 67.1668 20.9592" stroke="black" stroke-width="2.8346" stroke-miterlimit="10"/>
<path d="M36.7668 63.3592C36.7668 63.3592 34.8669 59.5592 21.1669 75.9592C7.46685 92.3592 -2.53315 115.259 0.566846 120.559C3.66685 125.859 5.36683 135.059 18.3668 133.159C31.4668 131.259 37.1668 121.759 39.4668 111.759C41.7668 101.959 40.9668 66.0592 36.7668 63.3592Z" fill="#25170D"/>
</svg>
